HIERARCHY
ROOT Hips
{
	OFFSET 0.000000 100.481300 0.000000
	CHANNELS 6 Xposition Yposition Zposition Xrotation Yrotation Zrotation 
	JOINT Spine
	{
		OFFSET -0.279200 12.230698 -2.892100
		CHANNELS 3 Xrotation Yrotation Zrotation
		JOINT Spine1
		{
			OFFSET -0.232667 10.192268 -1.242267
			CHANNELS 3 Xrotation Yrotation Zrotation
			JOINT Spine1_split
			{
				OFFSET -0.232667 10.192268 -1.242267
				CHANNELS 3 Xrotation Yrotation Zrotation
				JOINT Spine2
				{
					OFFSET -0.232667 10.192268 -1.242267
					CHANNELS 3 Xrotation Yrotation Zrotation
					JOINT Neck
					{
						OFFSET -0.418800 17.814194 8.416900
						CHANNELS 3 Xrotation Yrotation Zrotation
						JOINT Head
						{
							OFFSET 0.000000 7.031097 3.806800
							CHANNELS 3 Xrotation Yrotation Zrotation
							JOINT HeadTop_End
							{
								OFFSET 0.000000 24.646606 12.978600
								CHANNELS 3 Xrotation Yrotation Zrotation
								End Site
								{
									OFFSET 0.000000 0.000000 0.000000
								}
							}
						}
					}
					JOINT LeftShoulder
					{
						OFFSET 8.476499 7.247704 -3.868750
						CHANNELS 3 Xrotation Yrotation Zrotation
						JOINT LeftShoulder_split
						{
							OFFSET 8.476499 7.247704 -3.868750
							CHANNELS 3 Xrotation Yrotation Zrotation
							JOINT LeftArm
							{
								OFFSET 9.308998 -2.777710 0.208600
								CHANNELS 3 Xrotation Yrotation Zrotation
								JOINT LeftForeArm
								{
									OFFSET 29.972298 0.000000 0.000000
									CHANNELS 3 Xrotation Yrotation Zrotation
									JOINT LeftHand
									{
										OFFSET 26.026505 0.000000 0.000000
										CHANNELS 3 Xrotation Yrotation Zrotation
										JOINT LeftHandThumb1
										{
											OFFSET 12.240501 -7.147949 9.207150
											CHANNELS 3 Xrotation Yrotation Zrotation
											JOINT LeftHandThumb2
											{
												OFFSET 4.138618 -2.389435 2.389433
												CHANNELS 3 Xrotation Yrotation Zrotation
												JOINT LeftHandThumb3
												{
													OFFSET 2.726913 -1.574387 1.574386
													CHANNELS 3 Xrotation Yrotation Zrotation
													JOINT LeftHandThumb4
													{
														OFFSET 3.941010 -2.275345 2.275342
														CHANNELS 3 Xrotation Yrotation Zrotation
														End Site
														{
															OFFSET 0.000000 0.000000 0.000000
														}
													}
												}
											}
										}
										JOINT LeftHandIndex1
										{
											OFFSET 24.424698 -1.985611 5.953459
											CHANNELS 3 Xrotation Yrotation Zrotation
											JOINT LeftHandIndex2
											{
												OFFSET 6.426697 0.000000 0.000000
												CHANNELS 3 Xrotation Yrotation Zrotation
												JOINT LeftHandIndex3
												{
													OFFSET 5.337898 0.000000 0.000000
													CHANNELS 3 Xrotation Yrotation Zrotation
													JOINT LeftHandIndex4
													{
														OFFSET 4.409401 0.000000 0.000000
														CHANNELS 3 Xrotation Yrotation Zrotation
														End Site
														{
															OFFSET 0.000000 0.000000 0.000000
														}
													}
												}
											}
										}
										JOINT LeftHandMiddle1
										{
											OFFSET 23.810104 0.000000 0.000000
											CHANNELS 3 Xrotation Yrotation Zrotation
											JOINT LeftHandMiddle2
											{
												OFFSET 7.176498 0.000000 0.000000
												CHANNELS 3 Xrotation Yrotation Zrotation
												JOINT LeftHandMiddle3
												{
													OFFSET 6.774902 0.000000 0.000000
													CHANNELS 3 Xrotation Yrotation Zrotation
													JOINT LeftHandMiddle4
													{
														OFFSET 5.403328 0.000000 0.000000
														CHANNELS 3 Xrotation Yrotation Zrotation
														End Site
														{
															OFFSET 0.000000 0.000000 0.000000
														}
													}
												}
											}
										}
										JOINT LeftHandRing1
										{
											OFFSET 22.908401 -0.839279 -6.020567
											CHANNELS 3 Xrotation Yrotation Zrotation
											JOINT LeftHandRing2
											{
												OFFSET 6.337502 0.000000 0.000000
												CHANNELS 3 Xrotation Yrotation Zrotation
												JOINT LeftHandRing3
												{
													OFFSET 5.779297 0.000000 0.000000
													CHANNELS 3 Xrotation Yrotation Zrotation
													JOINT LeftHandRing4
													{
														OFFSET 4.965698 0.000000 0.000000
														CHANNELS 3 Xrotation Yrotation Zrotation
														End Site
														{
															OFFSET 0.000000 0.000000 0.000000
														}
													}
												}
											}
										}
										JOINT LeftHandPinky1
										{
											OFFSET 20.037003 -1.530319 -10.950146
											CHANNELS 3 Xrotation Yrotation Zrotation
											JOINT LeftHandPinky2
											{
												OFFSET 5.254700 0.000000 0.000000
												CHANNELS 3 Xrotation Yrotation Zrotation
												JOINT LeftHandPinky3
												{
													OFFSET 4.810204 0.000000 0.000000
													CHANNELS 3 Xrotation Yrotation Zrotation
													JOINT LeftHandPinky4
													{
														OFFSET 3.647202 0.000000 0.000000
														CHANNELS 3 Xrotation Yrotation Zrotation
														End Site
														{
															OFFSET 0.000000 0.000000 0.000000
														}
													}
												}
											}
										}
									}
								}
							}
						}
					}
					JOINT RightShoulder
					{
						OFFSET -7.570500 7.247704 -3.868750
						CHANNELS 3 Xrotation Yrotation Zrotation
						JOINT RightShoulder_split
						{
							OFFSET -7.570500 7.247704 -3.868750
							CHANNELS 3 Xrotation Yrotation Zrotation
							JOINT RightArm
							{
								OFFSET -9.308998 -2.777710 0.208500
								CHANNELS 3 Xrotation Yrotation Zrotation
								JOINT RightForeArm
								{
									OFFSET -29.972300 0.000000 0.000000
									CHANNELS 3 Xrotation Yrotation Zrotation
									JOINT RightHand
									{
										OFFSET -26.026505 0.000000 0.000000
										CHANNELS 3 Xrotation Yrotation Zrotation
										JOINT RightHandThumb1
										{
											OFFSET -12.240601 -7.148026 9.207092
											CHANNELS 3 Xrotation Yrotation Zrotation
											JOINT RightHandThumb2
											{
												OFFSET -4.138618 -2.389435 2.389433
												CHANNELS 3 Xrotation Yrotation Zrotation
												JOINT RightHandThumb3
												{
													OFFSET -2.726974 -1.574417 1.574421
													CHANNELS 3 Xrotation Yrotation Zrotation
													JOINT RightHandThumb4
													{
														OFFSET -3.941010 -2.275345 2.275343
														CHANNELS 3 Xrotation Yrotation Zrotation
														End Site
														{
															OFFSET 0.000000 0.000000 0.000000
														}
													}
												}
											}
										}
										JOINT RightHandIndex1
										{
											OFFSET -24.424698 -1.985657 5.953444
											CHANNELS 3 Xrotation Yrotation Zrotation
											JOINT RightHandIndex2
											{
												OFFSET -6.426697 0.000000 0.000000
												CHANNELS 3 Xrotation Yrotation Zrotation
												JOINT RightHandIndex3
												{
													OFFSET -5.337898 0.000000 0.000000
													CHANNELS 3 Xrotation Yrotation Zrotation
													JOINT RightHandIndex4
													{
														OFFSET -4.409401 0.000000 0.000000
														CHANNELS 3 Xrotation Yrotation Zrotation
														End Site
														{
															OFFSET 0.000000 0.000000 0.000000
														}
													}
												}
											}
										}
										JOINT RightHandMiddle1
										{
											OFFSET -23.810097 0.000000 0.000000
											CHANNELS 3 Xrotation Yrotation Zrotation
											JOINT RightHandMiddle2
											{
												OFFSET -7.176498 0.000000 0.000000
												CHANNELS 3 Xrotation Yrotation Zrotation
												JOINT RightHandMiddle3
												{
													OFFSET -6.774902 0.000000 0.000000
													CHANNELS 3 Xrotation Yrotation Zrotation
													JOINT RightHandMiddle4
													{
														OFFSET -5.403328 0.000000 0.000000
														CHANNELS 3 Xrotation Yrotation Zrotation
														End Site
														{
															OFFSET 0.000000 0.000000 0.000000
														}
													}
												}
											}
										}
										JOINT RightHandRing1
										{
											OFFSET -22.908302 -0.839325 -6.020576
											CHANNELS 3 Xrotation Yrotation Zrotation
											JOINT RightHandRing2
											{
												OFFSET -6.337502 0.000000 0.000000
												CHANNELS 3 Xrotation Yrotation Zrotation
												JOINT RightHandRing3
												{
													OFFSET -5.779297 0.000000 0.000000
													CHANNELS 3 Xrotation Yrotation Zrotation
													JOINT RightHandRing4
													{
														OFFSET -4.965698 0.000000 0.000000
														CHANNELS 3 Xrotation Yrotation Zrotation
														End Site
														{
															OFFSET 0.000000 0.000000 0.000000
														}
													}
												}
											}
										}
										JOINT RightHandPinky1
										{
											OFFSET -20.037003 -1.530334 -10.950259
											CHANNELS 3 Xrotation Yrotation Zrotation
											JOINT RightHandPinky2
											{
												OFFSET -5.254700 0.000000 0.000000
												CHANNELS 3 Xrotation Yrotation Zrotation
												JOINT RightHandPinky3
												{
													OFFSET -4.810204 0.000000 0.000000
													CHANNELS 3 Xrotation Yrotation Zrotation
													JOINT RightHandPinky4
													{
														OFFSET -3.647202 0.000000 0.000000
														CHANNELS 3 Xrotation Yrotation Zrotation
														End Site
														{
															OFFSET 0.000000 0.000000 0.000000
														}
													}
												}
											}
										}
									}
								}
							}
						}
					}
				}
			}
		}
	}
	JOINT LeftUpLeg
	{
		OFFSET 15.427100 -6.655098 0.678600
		CHANNELS 3 Xrotation Yrotation Zrotation
		JOINT LeftLeg
		{
			OFFSET 4.081073 -39.591068 13.024000
			CHANNELS 3 Xrotation Yrotation Zrotation
			JOINT LeftFoot
			{
				OFFSET -4.081074 -37.707932 -15.979700
				CHANNELS 3 Xrotation Yrotation Zrotation
				JOINT LeftToeBase
				{
					OFFSET 5.346399 -15.068900 20.645000
					CHANNELS 3 Xrotation Yrotation Zrotation
					JOINT LeftToe_End
					{
						OFFSET 2.754700 0.931300 11.300900
						CHANNELS 3 Xrotation Yrotation Zrotation
						End Site
						{
							OFFSET 0.000000 0.000000 0.000000
						}
					}
				}
			}
		}
	}
	JOINT RightUpLeg
	{
		OFFSET -15.569500 -6.655098 0.678600
		CHANNELS 3 Xrotation Yrotation Zrotation
		JOINT RightLeg
		{
			OFFSET -4.081825 -39.591045 13.023800
			CHANNELS 3 Xrotation Yrotation Zrotation
			JOINT RightFoot
			{
				OFFSET 4.081824 -37.707954 -15.979600
				CHANNELS 3 Xrotation Yrotation Zrotation
				JOINT RightToeBase
				{
					OFFSET -5.346400 -15.068900 20.645000
					CHANNELS 3 Xrotation Yrotation Zrotation
					JOINT RightToe_End
					{
						OFFSET -2.754700 0.931300 11.300900
						CHANNELS 3 Xrotation Yrotation Zrotation
						End Site
						{
							OFFSET 0.000000 0.000000 0.000000
						}
					}
				}
			}
		}
	}
}
MOTION
Frames: 5
Frame Time: 0.016667
11.848637 13.180016 209.195770 -98.547069 -0.689009 1.222290 3.630874 -0.219535 -0.779645 0.996825 -0.409160 0.102272 0.000000 0.000000 0.000000 1.002248 -0.404640 0.123115 11.869405 -0.692219 0.070575 20.968606 -3.405665 -0.139370 0.000001 0.000000 0.000000 -0.224993 -17.471183 -6.131982 0.000000 0.000000 0.000000 63.391471 -14.457668 -43.758017 -0.000003 -33.190365 -0.000004 11.926589 0.396544 4.407997 -18.975539 -6.392777 8.507240 7.278169 22.325634 2.208026 -4.727095 21.076405 18.327809 -0.000002 0.000001 0.000001 -1.359272 -16.895759 -9.169184 0.574334 2.531654 -25.560065 0.067712 -0.889067 8.710007 -0.000000 -0.000000 -0.000001 0.066804 2.541853 -1.771543 0.574333 2.531649 -25.560065 0.091231 -1.030923 10.113631 0.000001 -0.000000 -0.000002 -0.079281 11.343929 1.376917 0.156699 1.347270 -13.267764 0.039056 0.676075 -6.612278 0.000002 -0.000003 -0.000001 -1.005498 24.263600 3.994943 0.021164 0.498101 -4.866739 0.039028 0.675840 -6.609910 -0.000003 0.000000 -0.000001 -2.454925 7.297287 14.160516 0.000000 0.000000 0.000000 82.050625 23.802215 19.508782 -0.000002 33.367397 0.000003 -15.931058 26.703876 -8.895967 7.833043 7.095073 7.571913 7.285915 -22.249519 -2.728449 -3.878700 -19.856048 -17.665316 0.000001 -0.000001 -0.000001 0.350962 12.645973 48.306428 0.520620 -2.141524 27.324923 0.158027 1.204116 -14.952701 0.000000 0.000002 -0.000003 1.687090 -5.825079 49.552251 0.000002 -0.000001 0.000001 0.158021 1.204119 -14.952703 0.000001 -0.000001 -0.000000 7.431427 -12.945105 39.159138 -0.000000 0.000002 0.000008 0.134075 1.110549 -13.766493 -0.000000 0.000000 -0.000001 -2.798304 -28.992326 29.298411 -0.000003 -0.000000 0.000000 0.117014 1.038484 -12.857204 -0.000001 -0.000001 -0.000001 -33.770429 -41.476033 42.110418 90.520449 -14.972087 2.822954 15.754526 -5.170362 -23.438950 -8.456766 0.000013 0.000012 0.000002 0.000000 -0.000003 -44.121478 21.001266 -27.774930 85.595978 9.646045 -1.737351 11.553465 7.248957 22.810253 -1.799697 -0.000002 0.000007 0.000003 0.000000 -0.000000 
12.055492 13.206009 209.080795 -98.533033 -0.528625 1.271913 3.836639 -0.202407 -0.786528 1.031032 -0.407031 0.091107 0.000000 0.000000 0.000000 1.036529 -0.402723 0.114033 12.329909 -0.703528 0.096693 21.499284 -3.429747 -0.164762 -0.000001 -0.000000 -0.000000 -0.240331 -17.364778 -6.480453 0.000000 0.000000 0.000000 63.299133 -14.213858 -43.254096 -0.000010 -33.210859 -0.000007 11.917008 0.404493 4.405478 -18.975524 -6.392761 8.507240 7.278165 22.325622 2.208023 -4.727092 21.076413 18.327812 -0.000001 0.000000 0.000000 -1.359264 -16.895747 -9.169179 0.574338 2.531649 -25.560059 0.067707 -0.889064 8.710005 -0.000002 -0.000000 -0.000001 0.066805 2.541866 -1.771542 0.574335 2.531642 -25.560065 0.091227 -1.030937 10.113632 0.000001 -0.000001 -0.000001 -0.079280 11.343932 1.376915 0.156694 1.347266 -13.267769 0.039056 0.676070 -6.612275 0.000001 0.000004 0.000001 -1.005500 24.263583 3.994943 0.021168 0.498117 -4.866732 0.039027 0.675835 -6.609908 -0.000000 0.000004 -0.000001 -2.482191 7.018729 14.624705 0.000000 0.000000 0.000000 81.478515 23.186638 19.645581 -0.000004 33.245884 0.000008 -15.507279 26.798131 -8.793889 7.793400 7.101468 7.515301 7.283452 -22.228236 -2.727023 -3.879816 -19.826757 -17.657595 0.000001 -0.000000 0.000001 0.335961 12.653749 48.176418 0.520452 -2.141202 27.320381 0.157956 1.203831 -14.948928 -0.000000 -0.000001 -0.000006 1.669383 -5.809998 49.433364 0.000003 0.000001 -0.000003 0.157939 1.203799 -14.948450 0.000004 0.000000 -0.000002 7.397295 -12.931455 39.055862 0.000001 0.000001 0.000032 0.134001 1.110286 -13.763130 -0.000000 0.000000 -0.000001 -2.810853 -28.967450 29.197597 -0.000010 -0.001271 0.015460 0.116972 1.038325 -12.854977 -0.000005 0.000002 0.000000 -34.469622 -41.531389 41.567114 90.736188 -14.550053 2.871326 15.735110 -5.184996 -23.490221 -8.487335 -0.000012 -0.000009 0.000001 0.000002 0.000000 -43.549815 20.114185 -28.313250 84.759437 9.366782 -1.574642 10.459111 7.059281 23.285520 -1.833578 0.000001 -0.000004 -0.000002 -0.000001 0.000000 
12.260876 13.240723 208.950211 -98.521456 -0.378122 1.334591 4.131360 -0.191079 -0.809711 1.137659 -0.405697 0.070828 0.000000 0.000000 0.000000 1.143166 -0.402001 0.095220 12.729182 -0.700866 0.120165 22.078028 -3.388850 -0.214324 0.000002 -0.000000 -0.000000 -0.154413 -16.831181 -6.895301 0.000000 0.000000 0.000000 63.080540 -13.982382 -42.252862 0.000004 -33.293791 0.000008 11.914775 0.448064 4.394561 -18.975529 -6.392777 8.507237 7.278168 22.325626 2.208023 -4.727093 21.076413 18.327812 0.000002 0.000001 0.000000 -1.359267 -16.895757 -9.169183 0.574338 2.531654 -25.560060 0.067708 -0.889061 8.710007 -0.000001 -0.000001 0.000002 0.066802 2.541859 -1.771544 0.574343 2.531650 -25.560057 0.091227 -1.030935 10.113632 -0.000001 -0.000002 -0.000002 -0.079285 11.343915 1.376915 0.156700 1.347273 -13.267763 0.039053 0.676055 -6.612282 0.000001 0.000001 -0.000002 -1.005502 24.263578 3.994942 0.021172 0.498125 -4.866731 0.039026 0.675834 -6.609909 -0.000001 0.000003 0.000000 -2.516764 6.886645 15.038909 0.000000 0.000000 0.000000 80.629147 22.829702 19.944864 0.000002 32.748315 -0.000005 -14.761325 26.600085 -8.650797 7.677671 7.119783 7.350155 7.276374 -22.167319 -2.722944 -3.882931 -19.742829 -17.635407 -0.000000 -0.000000 0.000000 0.293471 12.676143 47.797510 0.519953 -2.140238 27.307001 0.157707 1.202952 -14.937759 0.000000 -0.000002 -0.000005 1.618786 -5.766386 49.086968 0.000002 -0.000001 0.000001 0.157676 1.202806 -14.935880 0.000000 0.000000 0.000000 7.298846 -12.892097 38.754872 0.000001 0.000002 0.000006 0.133813 1.109493 -13.753227 0.000003 0.000000 -0.000000 -2.846869 -28.895433 28.904169 0.000001 -0.004935 0.060540 0.116857 1.037811 -12.848418 0.000001 0.000000 -0.000001 -35.214659 -41.517510 40.994181 90.970463 -14.155081 2.904359 15.732823 -5.175522 -23.456423 -8.497709 0.000000 -0.000000 0.000002 -0.000000 -0.000004 -42.917678 19.124774 -28.824242 83.847464 9.081882 -1.418831 9.300663 6.921900 23.754826 -1.854845 -0.000005 0.000009 0.000001 -0.000000 0.000000 
12.460895 13.281754 208.810211 -98.522371 -0.242524 1.407880 4.398913 -0.195152 -0.844722 1.255843 -0.410343 0.044730 0.000000 0.000000 0.000000 1.261415 -0.407324 0.070598 13.050115 -0.685839 0.139931 22.764361 -3.297651 -0.308211 -0.000001 -0.000000 0.000000 -0.073222 -16.364821 -7.317481 0.000000 0.000000 0.000000 62.845834 -13.725585 -41.337220 -0.000000 -33.322174 -0.000003 11.894092 0.459383 4.390756 -18.975529 -6.392774 8.507233 7.278174 22.325629 2.208020 -4.727099 21.076405 18.327810 0.000002 -0.000000 0.000001 -1.359268 -16.895757 -9.169182 0.574335 2.531641 -25.560067 0.067714 -0.889071 8.710002 -0.000001 -0.000000 0.000000 0.066802 2.541837 -1.771547 0.574340 2.531650 -25.560060 0.091226 -1.030940 10.113631 -0.000000 -0.000000 0.000002 -0.079285 11.343913 1.376913 0.156703 1.347274 -13.267764 0.039054 0.676072 -6.612281 -0.000000 0.000002 0.000000 -1.005502 24.263578 3.994938 0.021168 0.498117 -4.866735 0.039027 0.675836 -6.609907 -0.000002 -0.000002 -0.000002 -2.562788 6.924872 15.366532 0.000000 0.000000 0.000000 79.650777 22.623108 20.419428 -0.000001 32.127567 -0.000002 -13.938557 26.344917 -8.468985 7.490616 7.148973 7.083552 7.265219 -22.071316 -2.716510 -3.887613 -19.609985 -17.600136 -0.000003 -0.000004 0.000001 0.227423 12.712864 47.186451 0.519135 -2.138651 27.285067 0.157319 1.201511 -14.919478 0.000004 0.000001 -0.000003 1.539441 -5.696212 48.528334 0.000001 -0.000005 0.000024 0.157249 1.201195 -14.915301 0.000002 0.000000 0.000001 7.142406 -12.828754 38.269485 -0.000001 -0.000003 -0.000001 0.133494 1.108204 -13.737000 0.000000 0.000000 -0.000001 -2.903371 -28.780488 28.431810 0.000013 -0.010852 0.133273 0.116647 1.036928 -12.837678 -0.000002 -0.000001 0.000000 -35.984623 -41.434619 40.407112 91.224580 -13.786105 2.919230 15.744390 -5.144514 -23.332176 -8.491010 -0.000013 -0.000008 -0.000001 -0.000001 -0.000001 -42.240878 18.004020 -29.279505 82.849006 8.903582 -1.260460 8.070886 6.702696 24.296339 -1.853763 0.000010 0.000007 0.000001 -0.000000 0.000001 
12.656468 13.327461 208.663040 -98.536783 -0.118786 1.486977 4.641121 -0.224843 -0.882717 1.387990 -0.425766 0.016742 0.000000 0.000000 0.000000 1.393695 -0.423227 0.044398 13.294722 -0.660562 0.148634 23.556810 -3.182665 -0.448012 0.000002 -0.000000 0.000000 0.009496 -15.933920 -7.745199 0.000000 0.000000 0.000000 62.583207 -13.462230 -40.495331 -0.000004 -33.289290 0.000008 11.854287 0.434909 4.394798 -18.975527 -6.392777 8.507237 7.278164 22.325631 2.208029 -4.727090 21.076403 18.327812 0.000002 -0.000000 0.000001 -1.359264 -16.895754 -9.169175 0.574337 2.531655 -25.560060 0.067713 -0.889075 8.710002 -0.000001 -0.000000 -0.000002 0.066802 2.541843 -1.771544 0.574336 2.531635 -25.560072 0.091227 -1.030921 10.113635 0.000000 0.000001 -0.000002 -0.079282 11.343913 1.376914 0.156700 1.347273 -13.267765 0.039058 0.676075 -6.612278 0.000001 0.000002 -0.000001 -1.005503 24.263583 3.994941 0.021169 0.498115 -4.866734 0.039029 0.675835 -6.609912 -0.000001 0.000002 -0.000002 -2.620611 7.110672 15.598115 0.000000 0.000000 0.000000 78.640961 22.506870 21.021523 0.000003 31.831899 -0.000000 -13.009562 25.690063 -8.391384 7.236935 7.188334 6.722702 7.250491 -21.944740 -2.708044 -3.893493 -19.434007 -17.553168 -0.000001 -0.000002 0.000000 0.141789 12.764525 46.360240 0.518013 -2.136480 27.254864 0.156797 1.199545 -14.894356 0.000001 0.000002 -0.000002 1.435863 -5.601202 47.772836 0.000002 -0.000000 -0.000001 0.156647 1.198951 -14.887029 0.000001 -0.000000 -0.000002 6.934709 -12.742666 37.613087 0.000004 -0.000001 0.000025 0.133061 1.106446 -13.714677 -0.000000 0.000000 -0.000000 -2.976905 -28.627170 27.794379 0.000042 -0.018883 0.231722 0.116389 1.035766 -12.822928 0.000001 -0.000000 0.000000 -36.779807 -41.288162 39.800069 91.501292 -13.420011 2.923292 15.772961 -5.104846 -23.119338 -8.472770 0.000008 -0.000005 0.000001 0.000002 -0.000000 -41.502422 16.749639 -29.711856 81.740316 8.815610 -1.076644 6.752643 6.424814 24.929224 -1.824280 -0.000015 0.000006 -0.000002 0.000000 0.000000 
